<mxfile host="app.diagrams.net" modified="2023-11-01T01:19:54.636Z" agent="Mozilla/5.0 (Windows NT 10.0; Win64; x64) AppleWebKit/537.36 (KHTML, like Gecko) Chrome/118.0.0.0 Safari/537.36 Edg/118.0.2088.76" etag="L1UE2-1FWfDaiJ7zJFJt" version="22.0.8" type="device">
  <diagram name="第 1 页" id="ns03sIvVMxbaDLmu1EGG">
    <mxGraphModel dx="1213" dy="780" grid="1" gridSize="10" guides="1" tooltips="1" connect="1" arrows="1" fold="1" page="1" pageScale="1" pageWidth="827" pageHeight="1169" math="0" shadow="0">
      <root>
        <mxCell id="0" />
        <mxCell id="1" parent="0" />
        <mxCell id="tAD29kY4FBk1jkSU38te-1" value="" style="rounded=0;whiteSpace=wrap;html=1;" vertex="1" parent="1">
          <mxGeometry x="350" y="370" width="120" height="60" as="geometry" />
        </mxCell>
        <mxCell id="tAD29kY4FBk1jkSU38te-2" value="" style="whiteSpace=wrap;html=1;aspect=fixed;" vertex="1" parent="1">
          <mxGeometry x="30" y="20" width="730" height="730" as="geometry" />
        </mxCell>
        <mxCell id="tAD29kY4FBk1jkSU38te-5" value="額外天數" style="whiteSpace=wrap;html=1;aspect=fixed;" vertex="1" parent="1">
          <mxGeometry x="90" y="180" width="80" height="80" as="geometry" />
        </mxCell>
        <mxCell id="tAD29kY4FBk1jkSU38te-6" value="額外天數" style="whiteSpace=wrap;html=1;aspect=fixed;" vertex="1" parent="1">
          <mxGeometry x="200" y="180" width="80" height="80" as="geometry" />
        </mxCell>
        <mxCell id="tAD29kY4FBk1jkSU38te-7" value="額外天數" style="whiteSpace=wrap;html=1;aspect=fixed;" vertex="1" parent="1">
          <mxGeometry x="312.5" y="180" width="80" height="80" as="geometry" />
        </mxCell>
        <mxCell id="tAD29kY4FBk1jkSU38te-9" value="日期選擇" style="rounded=0;whiteSpace=wrap;html=1;" vertex="1" parent="1">
          <mxGeometry x="80" y="90" width="120" height="60" as="geometry" />
        </mxCell>
        <mxCell id="tAD29kY4FBk1jkSU38te-10" value="" style="rounded=1;whiteSpace=wrap;html=1;" vertex="1" parent="1">
          <mxGeometry x="55" y="280" width="595" height="360" as="geometry" />
        </mxCell>
        <mxCell id="tAD29kY4FBk1jkSU38te-13" value="&lt;h1&gt;航班&lt;/h1&gt;&lt;p&gt;資訊 日期 開往時間&amp;nbsp;&lt;/p&gt;&lt;p&gt;哪台飛機&lt;/p&gt;" style="text;html=1;strokeColor=none;fillColor=none;spacing=5;spacingTop=-20;whiteSpace=wrap;overflow=hidden;rounded=0;" vertex="1" parent="1">
          <mxGeometry x="90" y="300" width="190" height="120" as="geometry" />
        </mxCell>
        <mxCell id="tAD29kY4FBk1jkSU38te-14" value="&lt;h1&gt;航班&lt;/h1&gt;&lt;p&gt;資訊 日期 開往時間&amp;nbsp;&lt;/p&gt;&lt;p&gt;哪台飛機&lt;/p&gt;" style="text;html=1;strokeColor=none;fillColor=none;spacing=5;spacingTop=-20;whiteSpace=wrap;overflow=hidden;rounded=0;" vertex="1" parent="1">
          <mxGeometry x="80" y="440" width="190" height="120" as="geometry" />
        </mxCell>
        <mxCell id="tAD29kY4FBk1jkSU38te-15" value="" style="rounded=0;whiteSpace=wrap;html=1;" vertex="1" parent="1">
          <mxGeometry x="30" y="20" width="730" height="60" as="geometry" />
        </mxCell>
      </root>
    </mxGraphModel>
  </diagram>
</mxfile>
